<?xml version="1.0" encoding="UTF-8"?>
<svg id="Layer_1" data-name="Layer 1" xmlns="http://www.w3.org/2000/svg" xmlns:xlink="http://www.w3.org/1999/xlink" viewBox="0 0 1538.04 1706.77">
  <defs>
    <style>
      .cls-1 {
        fill: url(#linear-gradient-2);
      }

      .cls-2 {
        fill: #fce2a6;
      }

      .cls-2, .cls-3, .cls-4 {
        fill-rule: evenodd;
      }

      .cls-3 {
        fill: #3e005d;
      }

      .cls-5 {
        clip-path: url(#clippath-1);
      }

      .cls-6 {
        clip-path: url(#clippath);
      }

      .cls-7 {
        clip-rule: evenodd;
      }

      .cls-7, .cls-8 {
        fill: none;
      }

      .cls-4 {
        fill: #4e046d;
      }

      .cls-9 {
        mask: url(#mask-1);
      }

      .cls-10 {
        mask: url(#mask);
      }

      .cls-11 {
        fill: url(#linear-gradient-3);
      }

      .cls-12 {
        fill: url(#linear-gradient);
      }

      .cls-13 {
        fill: url(#linear-gradient-4);
      }
    </style>
    <clipPath id="clippath">
      <path class="cls-7" d="M796.35,1052.85c95.78,22.67,79.25,156.59,30.66,170.22-60.44,16.95-108.95-3.73-159.71-17.19-33.64-8.92-63.95-13.26-90.96-13.69-20.02,1.59-33.72,1.64-33.72,1.64-293.36,34.95-104.67,603.66,470.7,500.44,480.84-86.27,808.84-779.14,170.34-882.81-264.38-42.93-557.52,40.2-651.31-210.05-86.11-229.76,255.28-321.77,497.75-357.79,23.12-3.44,45.34-6.36,66.21-8.85,92.1-10.98,157.78-13.42,157.78-13.42,120.73,1.54,121.05-208.19-255.05-220.92C654.17-11.25,341.31,224.31,278.95,471.39c-73.18,289.92,150.31,454.66,372.97,537.8,49.26,18.39,98.47,32.79,144.43,43.66"/>
    </clipPath>
    <linearGradient id="linear-gradient" x1="806.01" y1="73.76" x2="734" y2="1844.55" gradientTransform="translate(134.06 -20.35)" gradientUnits="userSpaceOnUse">
      <stop offset="0" stop-color="#ffce4b"/>
      <stop offset="1" stop-color="#c31296"/>
    </linearGradient>
    <linearGradient id="linear-gradient-2" x1="-3076.03" y1="584.51" x2="-2234.45" y2="1208.66" gradientTransform="translate(3329.99 -442.56)" gradientUnits="userSpaceOnUse">
      <stop offset="0" stop-color="#fff"/>
      <stop offset="1" stop-color="#000"/>
    </linearGradient>
    <mask id="mask" x="414.19" y="137.81" width="910.7" height="921.35" maskUnits="userSpaceOnUse">
      <rect class="cls-1" x="545.45" y="257.71" width="648.17" height="681.57" transform="translate(-184.99 551.02) rotate(-31.96)"/>
    </mask>
    <linearGradient id="linear-gradient-3" x1="-2435.24" y1="2750.2" x2="-2724.62" y2="1193.99" gradientTransform="translate(3684.41 -315.14)" xlink:href="#linear-gradient-2"/>
    <mask id="mask-1" x="395.94" y="793.53" width="1306.89" height="1134.26" maskUnits="userSpaceOnUse">
      <rect class="cls-11" x="471.16" y="1052.97" width="1156.46" height="615.38" transform="translate(-561.19 761.77) rotate(-31.96)"/>
    </mask>
    <clipPath id="clippath-1">
      <path class="cls-8" d="M393.5,1258.14c-103.88,107.47-104,198-13,217s133,187,0,200S-129.5,1322.14,45.5,1099.14s608-110,348,159Z"/>
    </clipPath>
    <linearGradient id="linear-gradient-4" x1="248.34" y1="931.06" x2="224.97" y2="1682.24" gradientTransform="matrix(1, 0, 0, 1, 0, 0)" xlink:href="#linear-gradient"/>
  </defs>
  <g class="cls-6">
    <rect class="cls-12" x="35.66" y="-5.59" width="1739.66" height="1818.43" transform="translate(-341.06 616.31) rotate(-31.96)"/>
  </g>
  <path class="cls-3" d="M532.35,601.4c93.79,250.25,386.93,167.12,651.31,210.05,0,0-764.77-159.31-153.56-567.84-242.47,36.02-583.87,128.03-497.75,357.79"/>
  <path class="cls-4" d="M796.35,1052.85c-45.96-10.88-95.17-25.27-144.43-43.66,181.64,146.37,3.63,176.72-75.58,183,27.02,.43,57.32,4.77,90.96,13.69,50.76,13.46,99.27,34.14,159.71,17.19,48.59-13.62,65.12-147.55-30.66-170.22"/>
  <g class="cls-10">
    <path class="cls-2" d="M532.35,601.4c-86.11-229.76,255.28-321.77,497.75-357.79-179.48,3.51-578.9,91.49-532.21,335.85,17.84,93.38,89.6,228.07,353.94,235.91,0,0,248.24-14.53,322.5-5.38-261.91-39.56-549.29,38.73-641.98-208.59"/>
  </g>
  <g class="cls-9">
    <path class="cls-4" d="M1301.53,840.67c178.39,971.61-876.16,601.99-876.16,601.99,60.75,153.38,262.49,309.99,587.95,251.6,447.9-80.36,763.19-687.06,288.21-853.6"/>
  </g>
  <g class="cls-5">
    <rect class="cls-13" x="-50" y="814.64" width="573" height="994"/>
  </g>
</svg>